<svg xmlns="http://www.w3.org/2000/svg" width="1920" height="1500" viewBox="0 0 1920 1500">
  <defs>
    <style>
      .cls-1 {
        fill-rule: evenodd;
      }
    </style>
  </defs>
  <path id="Заливка_цветом_1" data-name="Заливка цветом 1" class="cls-1" d="M1920,1488c-56.4.89-114.58-3.88-165-13-44.14-7.99-85.74-8.78-127-19-56.4-13.97-111.72-26.06-161-47q-43.995-22.995-88-46-39.495-15.495-79-31-63.495-19.005-127-38c-194.911-60.77-405.385-109.59-450-321-14.753-69.906,16.3-122.665,45-159,49.328-62.447,134.116-106.052,211-140,36.96-16.32,75.57-32.679,106-56,84.36-64.66,106.31-233.165,170-323,94.04-132.65,295.02-194.767,477-241,58.78-14.934,123.27-30.572,188-37V1488Z"/>
</svg>
