<svg id="SvgjsSvg1001" width="288" height="288" xmlns="http://www.w3.org/2000/svg" version="1.1" xmlns:xlink="http://www.w3.org/1999/xlink" xmlns:svgjs="http://svgjs.com/svgjs"><defs id="SvgjsDefs1002"></defs><g id="SvgjsG1008" transform="matrix(0.9167,0,0,0.9167,11.995217351388789,11.995223991203318)"><svg xmlns="http://www.w3.org/2000/svg" width="288" height="288" enable-background="new 0 0 511.986 511.986" viewBox="0 0 511.986 511.986"><path fill="#ffffff" d="M272.993,215.993c-25.233,0-45-26.355-45-60s19.767-60,45-60s45,26.355,45,60    S298.227,215.993,272.993,215.993z" class="colorfff4f4 svgShape"></path><path fill="#ffffff" d="M287.679,326.27c-33.355,4.406-62.072-11.738-65.377-36.754    c-3.305-25.016,20.235-48.064,53.589-52.471s62.072,11.738,65.377,36.754C344.574,298.815,321.034,321.863,287.679,326.27z" class="coloreee1dc svgShape"></path><path fill="#ffffff" d="M60.993,435.993c-25.233,0-45-26.355-45-60s19.767-60,45-60s45,26.355,45,60    S86.227,435.993,60.993,435.993z" class="colorfff4f4 svgShape"></path><path fill="#ffffff" d="M451.986,141.832c-33.645,0-60-19.767-60-45c0-25.233,26.355-45,60-45s60,19.767,60,45    C511.986,122.065,485.631,141.832,451.986,141.832z" class="coloreee1dc svgShape"></path><path fill="#b34f03" d="M472.3,22.108c-5.858-5.859-15.355-5.86-21.214-0.003l-69.341,69.321v-4.533c0-8.284-6.716-15-15-15   s-15,6.716-15,15v34.524l-200.75,200.691v-8.755c0-8.284-6.716-15-15-15s-15,6.716-15,15v38.746L4.395,468.666   c-5.858,5.857-5.859,15.354-0.003,21.213c2.93,2.93,6.769,4.395,10.608,4.395c3.838,0,7.677-1.464,10.605-4.392L44.5,470.993   h34.996c8.284,0,15-6.716,15-15s-6.716-15-15-15h-4.987l79.023-79h43.454c8.284,0,15-6.716,15-15s-6.716-15-15-15h-13.446   l137.2-137.16h45.434c8.284,0,15-6.716,15-15s-6.716-15-15-15H350.75L472.297,43.321C478.155,37.464,478.156,27.967,472.3,22.108z" class="colorb34f03 svgShape"></path><path fill="#803602" d="M196.986,331.993l-13.445,0l137.2-137.16l45.434,0c8.284,0,15-6.716,15-15c0-8.284-6.716-15-15-15   l-15.425,0L472.297,43.321c5.853-5.852,5.858-15.337,0.017-21.197L4.479,489.958c2.919,2.874,6.718,4.316,10.521,4.316   c3.838,0,7.677-1.464,10.605-4.392L44.5,470.993l34.996,0c8.284,0,15-6.716,15-15c0-8.284-6.716-15-15-15h-4.987l79.023-79   l43.454,0c8.284,0,15-6.716,15-15C211.986,338.709,205.271,331.993,196.986,331.993z" class="color803602 svgShape"></path></svg></g></svg>